<svg width="1280" height="560" viewBox="0 0 1280 560" fill="none" xmlns="http://www.w3.org/2000/svg">
  <defs>
    <linearGradient id="bg" x1="0" y1="0" x2="1280" y2="560" gradientUnits="userSpaceOnUse">
      <stop stop-color="#1A1C1E"/>
      <stop offset="0.55" stop-color="#252729"/>
      <stop offset="1" stop-color="#0E1012"/>
    </linearGradient>
    <radialGradient id="glowA" cx="0" cy="0" r="1" gradientUnits="userSpaceOnUse" gradientTransform="translate(332 165) rotate(35) scale(420 240)">
      <stop stop-color="#9AED00" stop-opacity="0.42"/>
      <stop offset="1" stop-color="#9AED00" stop-opacity="0"/>
    </radialGradient>
    <radialGradient id="glowB" cx="0" cy="0" r="1" gradientUnits="userSpaceOnUse" gradientTransform="translate(980 182) rotate(20) scale(380 220)">
      <stop stop-color="#6A47FF" stop-opacity="0.36"/>
      <stop offset="1" stop-color="#6A47FF" stop-opacity="0"/>
    </radialGradient>
  </defs>

  <rect width="1280" height="560" fill="url(#bg)"/>
  <ellipse cx="332" cy="165" rx="420" ry="240" fill="url(#glowA)"/>
  <ellipse cx="980" cy="182" rx="380" ry="220" fill="url(#glowB)"/>

  <rect x="48" y="58" width="196" height="20" rx="10" fill="#FFFFFF" fill-opacity="0.1"/>
  <rect x="48" y="88" width="278" height="12" rx="6" fill="#FFFFFF" fill-opacity="0.18"/>

  <g opacity="0.8">
    <rect x="48" y="436" width="240" height="12" rx="6" fill="#FFFFFF" fill-opacity="0.18"/>
    <rect x="48" y="456" width="320" height="10" rx="5" fill="#FFFFFF" fill-opacity="0.12"/>
  </g>

  <g opacity="0.55">
    <rect x="1048" y="70" width="184" height="8" rx="4" fill="#FFFFFF" fill-opacity="0.16"/>
    <rect x="1088" y="86" width="144" height="8" rx="4" fill="#FFFFFF" fill-opacity="0.1"/>
  </g>

  <rect x="0" y="0" width="1280" height="560" fill="url(#fade)"/>
  <defs>
    <linearGradient id="fade" x1="640" y1="0" x2="640" y2="560" gradientUnits="userSpaceOnUse">
      <stop stop-color="#000000" stop-opacity="0"/>
      <stop offset="1" stop-color="#000000" stop-opacity="0.45"/>
    </linearGradient>
  </defs>
</svg>
