<svg xmlns="http://www.w3.org/2000/svg" xmlns:v="https://svgstorm.com"
viewBox = "0 0 1000 1000"
width="1000"
height="1000">
<g fill="None" fill-opacity="0.0" stroke="#000000" stroke-opacity="0.00" stroke-width="0.3"><path d="
M 0.00 1000.00 
L 1000.00 1000.00
L 1000.00 0.00
L 0.00 0.00
L 0.00 1000.00
M 855.00 41.00 
C 856.46 41.49 857.87 42.49 859.00 43.00
C 861.63 44.18 864.57 45.85 867.00 47.00
C 867.83 47.39 869.07 47.58 870.00 48.00
C 876.05 50.73 882.06 53.70 887.00 58.00
C 890.18 59.83 893.10 61.69 896.00 64.00
C 899.96 67.16 904.15 69.71 908.00 73.00
C 909.82 74.56 911.38 76.38 913.00 78.00
C 916.32 81.32 919.97 84.45 923.00 88.00
C 950.13 119.74 969.00 158.52 969.00 201.00
C 969.18 202.82 970.16 205.47 970.00 208.00
C 973.80 239.41 970.00 272.64 971.00 305.00 C 972.00 337.36 970.69 370.50 971.00 403.00 C 971.31 435.50 971.17 468.47 971.00 501.00 C 970.83 533.53 971.75 566.52 971.00 599.00 C 970.25 631.48 972.85 664.71 971.00 697.00 C 969.15 729.29 975.57 763.90 970.00 795.00
C 970.23 796.85 969.19 797.89 969.00 799.00
C 969.03 886.03 890.19 965.56 804.00 969.00
C 802.80 969.17 800.81 969.93 799.00 970.00
C 732.76 972.64 666.32 969.29 600.00 970.00 C 533.68 970.71 467.38 970.75 401.00 970.00 C 334.62 969.25 267.37 972.69 201.00 970.00
C 199.16 969.93 197.19 969.17 196.00 969.00
C 109.81 965.52 31.00 886.08 31.00 799.00
C 26.28 750.26 31.21 699.74 30.00 650.00 C 28.79 600.26 30.00 548.86 30.00 499.00 C 30.00 449.14 28.76 398.78 30.00 349.00 C 31.24 299.22 26.28 247.78 31.00 199.00
C 31.00 156.71 50.72 119.97 77.25 88.25 C 103.78 56.52 139.97 41.85 178.00 32.00
C 179.49 31.61 180.30 31.09 182.00 31.00
C 182.96 30.95 184.05 31.17 185.00 31.00
C 186.31 30.77 188.11 30.08 190.00 30.00
C 192.99 29.88 196.01 30.00 199.00 30.00
C 247.66 25.29 298.36 30.17 348.00 29.00 C 397.64 27.83 448.22 28.87 498.00 29.00 C 547.78 29.13 598.23 27.47 648.00 29.00 C 697.77 30.53 748.40 25.06 798.00 29.00
C 818.05 30.59 836.32 34.75 855.00 41.00 Z"/>
</g>
<g fill="None" fill-opacity="0.0" stroke="#969695" stroke-opacity="0.27" stroke-width="0.3"><path d="
M 199.00 30.00 
C 398.45 30.00 599.39 32.48 798.00 29.00
C 748.40 25.06 697.77 30.53 648.00 29.00 C 598.23 27.47 547.78 29.13 498.00 29.00 C 448.22 28.87 397.64 27.83 348.00 29.00 C 298.36 30.17 247.66 25.29 199.00 30.00 Z"/>
</g>
<g fill="None" fill-opacity="0.0" stroke="#FEFEFE" stroke-opacity="1.00" stroke-width="0.3"><path d="
M 199.00 30.00 
C 196.01 30.00 192.99 29.88 190.00 30.00
C 189.96 30.00 190.00 31.00 190.00 31.00
C 188.35 33.12 186.51 31.32 185.00 31.00
C 184.05 31.17 182.96 30.95 182.00 31.00
C 180.20 31.82 180.32 31.86 178.00 32.00
C 139.97 41.85 103.78 56.52 77.25 88.25 C 50.72 119.97 31.00 156.71 31.00 199.00
C 31.00 399.00 31.00 599.00 31.00 799.00
C 31.00 886.08 109.81 965.52 196.00 969.00
C 197.85 969.07 199.81 969.83 201.00 970.00
C 267.37 972.69 334.62 969.25 401.00 970.00 C 467.38 970.75 533.68 970.71 600.00 970.00 C 666.32 969.29 732.76 972.64 799.00 970.00
C 800.21 969.83 802.19 969.07 804.00 969.00
C 890.19 965.56 969.03 886.03 969.00 799.00
C 969.00 797.33 969.00 795.67 969.00 794.00
C 969.02 599.34 968.99 404.67 969.00 210.00
C 969.00 207.00 969.00 204.00 969.00 201.00
C 969.00 158.52 950.13 119.74 923.00 88.00
C 919.75 84.75 916.21 81.21 913.00 78.00
C 911.41 76.41 909.55 74.55 908.00 73.00
C 904.15 69.71 899.96 67.16 896.00 64.00
C 893.49 62.75 890.03 60.64 887.00 58.00
C 882.06 53.70 876.05 50.73 870.00 48.00
C 869.12 47.72 867.09 47.07 867.00 47.00
C 864.57 45.85 861.63 44.18 859.00 43.00
C 857.51 42.60 856.50 41.78 855.00 41.00
C 836.32 34.75 818.05 30.59 798.00 29.00
C 599.39 32.48 398.45 30.00 199.00 30.00
M 569.00 154.00 
C 575.72 157.99 582.69 164.02 589.00 169.00
C 594.02 172.96 599.08 178.03 603.00 183.00
C 621.02 205.82 635.00 234.29 635.00 264.00
C 635.05 264.23 635.95 264.65 636.00 265.00
C 642.55 264.13 646.87 252.47 652.75 248.75 C 658.63 245.03 664.01 236.52 669.75 231.75 C 675.50 226.98 681.09 219.97 686.75 214.75 C 692.41 209.53 697.64 203.71 703.25 198.25 C 708.86 192.79 714.67 186.85 720.25 181.25 C 725.83 175.64 731.96 169.98 737.00 164.00
C 770.42 193.59 801.12 228.28 834.00 259.00
C 801.17 292.67 767.62 326.21 734.00 359.00
C 763.84 361.89 791.90 375.27 815.00 395.00
C 818.87 398.31 822.98 401.94 826.00 406.00
C 831.31 413.14 837.90 420.48 842.00 428.00
C 850.98 431.48 863.37 426.18 873.00 428.00 C 882.63 429.82 894.19 426.64 904.00 428.00
C 903.73 438.90 904.36 450.13 904.00 461.00 C 903.64 471.87 904.67 484.36 904.00 495.00 C 903.33 505.64 905.47 517.99 904.00 528.00 C 902.53 538.01 907.14 553.30 904.00 562.00 C 900.86 570.70 882.35 562.99 874.00 565.00 C 865.65 567.01 849.55 564.32 841.00 564.00
C 830.42 581.10 814.77 598.99 797.00 609.00
C 793.90 611.22 791.57 613.37 788.00 615.00
C 771.71 622.45 756.12 628.35 738.00 630.00
C 736.30 630.33 734.36 631.26 732.00 631.00
C 745.56 650.43 767.29 664.20 782.75 682.25 C 798.22 700.29 817.80 715.78 834.00 733.00
C 804.41 766.42 769.72 797.12 739.00 830.00
C 703.25 798.08 670.22 761.05 635.00 728.00
C 636.53 749.79 624.29 775.68 613.23 793.23 C 602.17 810.78 586.22 826.45 569.00 837.00
C 566.29 846.05 570.30 856.46 569.00 866.00 C 567.70 875.54 569.74 885.06 569.00 895.00 C 568.26 904.94 553.72 900.42 545.00 901.00 C 536.28 901.58 525.06 900.93 516.00 901.00 C 506.94 901.07 495.98 901.40 487.00 901.00 C 478.02 900.60 465.37 902.09 457.00 901.00 C 448.63 899.91 434.49 905.39 432.01 896.99 C 429.53 888.59 434.17 876.78 432.00 868.00 C 429.83 859.22 435.27 846.45 432.00 838.00
C 424.54 834.31 416.75 827.32 410.00 822.00
C 405.32 818.30 400.65 813.63 397.00 809.00
C 380.79 788.47 366.59 764.59 365.00 738.00
C 364.74 736.17 364.15 733.42 364.00 731.00
C 363.78 730.70 363.05 730.23 363.00 730.00
C 354.96 735.70 349.48 745.27 341.75 751.75 C 334.02 758.24 327.64 766.12 320.25 773.25 C 312.86 780.37 305.94 787.02 298.75 794.75 C 291.56 802.49 284.26 807.52 277.25 816.25 C 270.24 824.97 262.04 831.67 254.75 821.25 C 247.46 810.83 240.49 808.39 233.25 799.75 C 226.00 791.11 219.00 786.10 211.75 778.25 C 204.50 770.40 197.56 764.26 190.25 756.75 C 182.94 749.24 175.67 741.90 168.00 735.00
C 199.36 699.15 237.66 666.83 269.00 631.00
C 266.68 631.00 264.32 631.11 262.00 631.00
C 256.59 630.73 251.68 629.28 247.00 628.00
C 244.84 627.65 243.10 627.46 241.00 627.00
C 236.94 626.11 233.36 624.24 230.00 623.00
C 228.32 622.57 226.70 622.50 225.00 622.00
C 220.02 620.55 215.07 617.63 211.00 615.00
C 202.05 610.72 193.58 604.48 186.00 598.00
C 182.06 594.63 178.33 590.89 175.00 587.00
C 169.03 580.01 162.49 572.57 158.00 565.00
C 148.98 561.83 137.61 566.60 128.00 565.00 C 118.39 563.40 106.79 566.20 97.00 565.00
C 97.00 519.33 97.00 473.67 97.00 428.00
C 117.00 428.00 137.00 428.00 157.00 428.00
C 179.28 387.58 222.07 363.25 266.00 359.00
C 259.24 356.50 255.26 345.46 248.75 341.25 C 242.25 337.04 237.54 328.90 231.25 323.75 C 224.95 318.60 219.59 311.27 213.25 305.75 C 206.91 300.24 202.43 293.88 195.75 288.25 C 189.07 282.61 185.84 276.38 178.25 270.75 C 170.66 265.13 166.00 257.67 174.75 251.75 C 183.50 245.83 185.09 240.15 192.25 234.25 C 199.41 228.35 203.30 222.68 209.75 216.75 C 216.21 210.83 221.59 204.70 227.75 198.75 C 233.91 192.81 239.26 187.24 245.25 181.25 C 251.24 175.26 257.57 169.35 263.00 163.00
C 296.83 195.33 329.21 229.71 363.00 262.00
C 366.92 217.51 392.72 173.97 433.00 152.00
C 435.05 145.23 429.48 132.88 432.00 125.00 C 434.52 117.12 428.75 103.32 432.00 96.00 C 435.25 88.68 450.25 94.28 458.00 93.00 C 465.75 91.72 477.50 93.31 486.00 93.00 C 494.50 92.69 506.47 92.64 515.00 93.00 C 523.53 93.36 536.19 91.74 544.00 93.00 C 551.81 94.26 565.95 88.46 568.97 96.03 C 571.99 103.60 566.80 116.66 569.00 125.00 C 571.20 133.34 566.11 145.76 569.00 154.00 Z"/>
</g>
<g fill="None" fill-opacity="0.0" stroke="#686865" stroke-opacity="0.22" stroke-width="0.3"><path d="
M 185.00 31.00 
C 186.53 30.61 188.51 31.51 190.00 31.00
C 190.00 31.00 189.96 30.00 190.00 30.00
C 188.11 30.08 186.31 30.77 185.00 31.00 Z"/>
</g>
<g fill="None" fill-opacity="0.0" stroke="#9E9E9B" stroke-opacity="0.51" stroke-width="0.3"><path d="
M 178.00 32.00 
C 180.32 31.86 180.20 31.82 182.00 31.00
C 180.30 31.09 179.49 31.61 178.00 32.00 Z"/>
</g>
<g fill="None" fill-opacity="0.0" stroke="#B6B6B5" stroke-opacity="0.72" stroke-width="0.3"><path d="
M 190.00 31.00 
C 188.51 31.51 186.53 30.61 185.00 31.00
C 186.51 31.32 188.35 33.12 190.00 31.00 Z"/>
</g>
<g fill="None" fill-opacity="0.0" stroke="#A2A1A2" stroke-opacity="0.48" stroke-width="0.3"><path d="
M 859.00 43.00 
C 857.87 42.49 856.46 41.49 855.00 41.00
C 856.50 41.78 857.51 42.60 859.00 43.00 Z"/>
</g>
<g fill="None" fill-opacity="0.0" stroke="#B2B2B2" stroke-opacity="0.59" stroke-width="0.3"><path d="
M 870.00 48.00 
C 869.07 47.58 867.83 47.39 867.00 47.00
C 867.09 47.07 869.12 47.72 870.00 48.00 Z"/>
</g>
<g fill="None" fill-opacity="0.0" stroke="#AEAEAE" stroke-opacity="0.56" stroke-width="0.3"><path d="
M 896.00 64.00 
C 893.10 61.69 890.18 59.83 887.00 58.00
C 890.03 60.64 893.49 62.75 896.00 64.00 Z"/>
</g>
<g fill="None" fill-opacity="0.0" stroke="#454545" stroke-opacity="0.16" stroke-width="0.3"><path d="
M 913.00 78.00 
C 911.38 76.38 909.82 74.56 908.00 73.00
C 909.55 74.55 911.41 76.41 913.00 78.00 Z"/>
</g>
<g fill="None" fill-opacity="0.0" stroke="#838383" stroke-opacity="0.32" stroke-width="0.3"><path d="
M 923.00 88.00 
C 919.97 84.45 916.32 81.32 913.00 78.00
C 916.21 81.21 919.75 84.75 923.00 88.00 Z"/>
</g>
<g fill="None" fill-opacity="0.0" stroke="#AEE352" stroke-opacity="1.00" stroke-width="0.3"><path d="
M 433.00 152.00 
C 450.42 142.50 471.82 136.40 492.00 136.00
C 496.84 135.42 502.21 135.32 507.00 136.00
C 528.08 136.80 550.96 143.29 569.00 154.00
C 566.11 145.76 571.20 133.34 569.00 125.00 C 566.80 116.66 571.99 103.60 568.97 96.03 C 565.95 88.46 551.81 94.26 544.00 93.00 C 536.19 91.74 523.53 93.36 515.00 93.00 C 506.47 92.64 494.50 92.69 486.00 93.00 C 477.50 93.31 465.75 91.72 458.00 93.00 C 450.25 94.28 435.25 88.68 432.00 96.00 C 428.75 103.32 434.52 117.12 432.00 125.00 C 429.48 132.88 435.05 145.23 433.00 152.00 Z"/>
</g>
<g fill="None" fill-opacity="0.0" stroke="#4D7F45" stroke-opacity="1.00" stroke-width="0.3"><path d="
M 492.00 136.00 
C 496.97 135.90 502.03 135.81 507.00 136.00
C 502.21 135.32 496.84 135.42 492.00 136.00 Z"/>
</g>
<g fill="None" fill-opacity="0.0" stroke="#17343C" stroke-opacity="1.00" stroke-width="0.3"><path d="
M 433.00 152.00 
C 392.72 173.97 366.92 217.51 363.00 262.00
C 359.76 298.78 374.70 339.00 400.25 364.75 C 425.80 390.50 448.66 415.60 455.00 451.00
C 420.20 442.93 394.90 423.20 369.25 396.75 C 343.60 370.30 302.86 357.53 266.00 359.00
C 222.07 363.25 179.28 387.58 157.00 428.00
C 133.90 469.89 133.27 523.36 158.00 565.00
C 162.49 572.57 169.03 580.01 175.00 587.00
C 178.59 590.59 182.46 594.46 186.00 598.00
C 193.58 604.48 202.05 610.72 211.00 615.00
C 215.49 617.15 220.64 620.22 225.00 622.00
C 226.70 622.50 228.32 622.57 230.00 623.00
C 233.76 623.96 237.64 625.94 241.00 627.00
C 243.10 627.46 244.84 627.65 247.00 628.00
C 251.87 628.78 257.60 630.40 262.00 631.00
C 264.32 631.11 266.68 631.00 269.00 631.00
C 284.76 631.00 303.43 629.25 317.22 624.22 C 331.01 619.19 342.58 613.77 354.23 606.23 C 365.88 598.69 372.43 588.23 382.75 579.75 C 393.08 571.27 401.74 560.63 413.74 555.74 C 425.75 550.86 439.80 539.37 453.00 539.00
C 455.93 538.92 455.57 538.88 455.00 542.00
C 455.12 549.09 447.81 557.15 446.23 564.23 C 444.65 571.31 438.74 577.87 435.23 584.23 C 431.72 590.59 426.58 597.19 422.00 603.00
C 420.42 605.01 418.62 607.11 417.00 609.00
C 414.22 612.25 411.20 615.26 408.00 618.00
C 393.23 630.62 382.11 644.84 374.69 662.69 C 367.28 680.55 358.35 709.09 363.00 730.00
C 363.05 730.23 363.78 730.70 364.00 731.00
C 365.44 732.96 364.85 735.42 365.00 738.00
C 366.59 764.59 380.79 788.47 397.00 809.00
C 400.93 813.26 405.79 818.11 410.00 822.00
C 416.75 827.32 424.54 834.31 432.00 838.00
C 447.01 845.42 464.92 852.65 482.00 854.00
C 484.60 854.21 488.07 854.81 490.00 855.00
C 512.46 855.00 531.55 851.73 552.00 845.00
C 554.28 843.95 557.46 842.24 560.00 841.00
C 562.85 839.14 566.44 838.57 569.00 837.00
C 586.22 826.45 602.17 810.78 613.23 793.23 C 624.29 775.68 636.53 749.79 635.00 728.00
C 634.97 727.50 635.00 726.50 635.00 726.00
C 635.00 721.33 635.00 716.67 635.00 712.00
C 635.00 678.36 617.71 644.69 593.75 621.25 C 569.80 597.81 549.36 571.76 544.00 539.00
C 557.73 541.86 570.84 547.82 583.00 555.00
C 587.25 557.39 591.09 560.15 595.00 563.00
C 613.43 573.72 623.88 591.72 641.75 604.25 C 659.61 616.79 682.33 628.10 705.00 629.00
C 706.64 629.07 709.14 628.31 710.00 630.00
C 710.20 630.40 710.00 631.00 710.00 631.00
C 716.97 631.28 724.02 631.00 731.00 631.00
C 732.64 630.84 735.77 630.20 738.00 630.00
C 756.12 628.35 771.71 622.45 788.00 615.00
C 790.96 613.31 793.88 610.76 797.00 609.00
C 814.77 598.99 830.42 581.10 841.00 564.00
C 865.78 523.97 864.10 468.52 842.00 428.00
C 837.90 420.48 831.31 413.14 826.00 406.00
C 822.80 402.33 818.43 398.43 815.00 395.00
C 791.90 375.27 763.84 361.89 734.00 359.00
C 697.02 355.42 655.60 369.99 629.75 395.75 C 603.91 421.51 578.11 443.30 543.00 451.00
C 551.55 419.40 568.18 392.39 593.25 369.25 C 618.32 346.11 633.35 312.59 635.00 279.00
C 635.00 274.00 635.00 269.00 635.00 264.00
C 635.00 234.29 621.02 205.82 603.00 183.00
C 598.75 178.40 593.55 173.21 589.00 169.00
C 582.69 164.02 575.72 157.99 569.00 154.00
C 550.96 143.29 528.08 136.80 507.00 136.00
C 502.03 135.81 496.97 135.90 492.00 136.00
C 471.82 136.40 450.42 142.50 433.00 152.00 Z"/>
</g>
<g fill="None" fill-opacity="0.0" stroke="#ADE350" stroke-opacity="1.00" stroke-width="0.3"><path d="
M 266.00 359.00 
C 302.86 357.53 343.60 370.30 369.25 396.75 C 394.90 423.20 420.20 442.93 455.00 451.00
C 448.66 415.60 425.80 390.50 400.25 364.75 C 374.70 339.00 359.76 298.78 363.00 262.00
C 329.21 229.71 296.83 195.33 263.00 163.00
C 257.57 169.35 251.24 175.26 245.25 181.25 C 239.26 187.24 233.91 192.81 227.75 198.75 C 221.59 204.70 216.21 210.83 209.75 216.75 C 203.30 222.68 199.41 228.35 192.25 234.25 C 185.09 240.15 183.50 245.83 174.75 251.75 C 166.00 257.67 170.66 265.13 178.25 270.75 C 185.84 276.38 189.07 282.61 195.75 288.25 C 202.43 293.88 206.91 300.24 213.25 305.75 C 219.59 311.27 224.95 318.60 231.25 323.75 C 237.54 328.90 242.25 337.04 248.75 341.25 C 255.26 345.46 259.24 356.50 266.00 359.00 Z"/>
</g>
<g fill="None" fill-opacity="0.0" stroke="#ADE34E" stroke-opacity="1.00" stroke-width="0.3"><path d="
M 636.00 265.00 
C 636.68 269.69 635.38 275.09 635.00 279.00
C 633.35 312.59 618.32 346.11 593.25 369.25 C 568.18 392.39 551.55 419.40 543.00 451.00
C 578.11 443.30 603.91 421.51 629.75 395.75 C 655.60 369.99 697.02 355.42 734.00 359.00
C 767.62 326.21 801.17 292.67 834.00 259.00
C 801.12 228.28 770.42 193.59 737.00 164.00
C 731.96 169.98 725.83 175.64 720.25 181.25 C 714.67 186.85 708.86 192.79 703.25 198.25 C 697.64 203.71 692.41 209.53 686.75 214.75 C 681.09 219.97 675.50 226.98 669.75 231.75 C 664.01 236.52 658.63 245.03 652.75 248.75 C 646.87 252.47 642.55 264.13 636.00 265.00 Z"/>
</g>
<g fill="None" fill-opacity="0.0" stroke="#899697" stroke-opacity="1.00" stroke-width="0.3"><path d="
M 603.00 183.00 
C 599.08 178.03 594.02 172.96 589.00 169.00
C 593.55 173.21 598.75 178.40 603.00 183.00 Z"/>
</g>
<g fill="None" fill-opacity="0.0" stroke="#6A6A69" stroke-opacity="0.61" stroke-width="0.3"><path d="
M 31.00 799.00 
C 31.00 599.00 31.00 399.00 31.00 199.00
C 26.28 247.78 31.24 299.22 30.00 349.00 C 28.76 398.78 30.00 449.14 30.00 499.00 C 30.00 548.86 28.79 600.26 30.00 650.00 C 31.21 699.74 26.28 750.26 31.00 799.00 Z"/>
</g>
<g fill="None" fill-opacity="0.0" stroke="#6F7170" stroke-opacity="0.45" stroke-width="0.3"><path d="
M 969.00 210.00 
C 969.00 209.96 970.00 210.00 970.00 210.00
C 970.00 209.50 969.97 208.50 970.00 208.00
C 970.16 205.47 969.18 202.82 969.00 201.00
C 969.00 204.00 969.00 207.00 969.00 210.00 Z"/>
</g>
<g fill="None" fill-opacity="0.0" stroke="#000000" stroke-opacity="0.09" stroke-width="0.3"><path d="
M 970.00 210.00 
C 969.99 404.67 969.77 599.34 970.00 794.00
C 970.00 794.50 970.00 795.00 970.00 795.00
C 975.57 763.90 969.15 729.29 971.00 697.00 C 972.85 664.71 970.25 631.48 971.00 599.00 C 971.75 566.52 970.83 533.53 971.00 501.00 C 971.17 468.47 971.31 435.50 971.00 403.00 C 970.69 370.50 972.00 337.36 971.00 305.00 C 970.00 272.64 973.80 239.41 970.00 208.00
C 969.97 208.50 970.00 209.50 970.00 210.00 Z"/>
</g>
<g fill="None" fill-opacity="0.0" stroke="#919292" stroke-opacity="0.61" stroke-width="0.3"><path d="
M 969.00 794.00 
C 969.05 793.85 970.00 794.00 970.00 794.00
C 969.77 599.34 969.99 404.67 970.00 210.00
C 970.00 210.00 969.00 209.96 969.00 210.00
C 968.99 404.67 969.02 599.34 969.00 794.00 Z"/>
</g>
<g fill="None" fill-opacity="0.0" stroke="#789F5F" stroke-opacity="1.00" stroke-width="0.3"><path d="
M 635.00 279.00 
C 635.38 275.09 636.68 269.69 636.00 265.00
C 635.95 264.65 635.05 264.23 635.00 264.00
C 635.00 269.00 635.00 274.00 635.00 279.00 Z"/>
</g>
<g fill="None" fill-opacity="0.0" stroke="#829194" stroke-opacity="1.00" stroke-width="0.3"><path d="
M 826.00 406.00 
C 822.98 401.94 818.87 398.31 815.00 395.00
C 818.43 398.43 822.80 402.33 826.00 406.00 Z"/>
</g>
<g fill="None" fill-opacity="0.0" stroke="#AFE552" stroke-opacity="1.00" stroke-width="0.3"><path d="
M 158.00 565.00 
C 133.27 523.36 133.90 469.89 157.00 428.00
C 137.00 428.00 117.00 428.00 97.00 428.00
C 97.00 473.67 97.00 519.33 97.00 565.00
C 106.79 566.20 118.39 563.40 128.00 565.00 C 137.61 566.60 148.98 561.83 158.00 565.00 Z"/>
</g>
<g fill="None" fill-opacity="0.0" stroke="#AEE450" stroke-opacity="1.00" stroke-width="0.3"><path d="
M 841.00 564.00 
C 849.55 564.32 865.65 567.01 874.00 565.00 C 882.35 562.99 900.86 570.70 904.00 562.00 C 907.14 553.30 902.53 538.01 904.00 528.00 C 905.47 517.99 903.33 505.64 904.00 495.00 C 904.67 484.36 903.64 471.87 904.00 461.00 C 904.36 450.13 903.73 438.90 904.00 428.00
C 894.19 426.64 882.63 429.82 873.00 428.00 C 863.37 426.18 850.98 431.48 842.00 428.00
C 864.10 468.52 865.78 523.97 841.00 564.00 Z"/>
</g>
<g fill="None" fill-opacity="0.0" stroke="#2F4831" stroke-opacity="1.00" stroke-width="0.3"><path d="
M 453.00 539.00 
C 454.96 539.58 454.96 539.70 455.00 542.00
C 455.57 538.88 455.93 538.92 453.00 539.00 Z"/>
</g>
<g fill="None" fill-opacity="0.0" stroke="#ADE34F" stroke-opacity="1.00" stroke-width="0.3"><path d="
M 269.00 631.00 
C 237.66 666.83 199.36 699.15 168.00 735.00
C 175.67 741.90 182.94 749.24 190.25 756.75 C 197.56 764.26 204.50 770.40 211.75 778.25 C 219.00 786.10 226.00 791.11 233.25 799.75 C 240.49 808.39 247.46 810.83 254.75 821.25 C 262.04 831.67 270.24 824.97 277.25 816.25 C 284.26 807.52 291.56 802.49 298.75 794.75 C 305.94 787.02 312.86 780.37 320.25 773.25 C 327.64 766.12 334.02 758.24 341.75 751.75 C 349.48 745.27 354.96 735.70 363.00 730.00
C 358.35 709.09 367.28 680.55 374.69 662.69 C 382.11 644.84 393.23 630.62 408.00 618.00
C 410.75 615.25 413.51 611.91 416.00 609.00
C 417.83 606.86 420.18 604.97 422.00 603.00
C 426.58 597.19 431.72 590.59 435.23 584.23 C 438.74 577.87 444.65 571.31 446.23 564.23 C 447.81 557.15 455.12 549.09 455.00 542.00
C 454.96 539.70 454.96 539.58 453.00 539.00
C 439.80 539.37 425.75 550.86 413.74 555.74 C 401.74 560.63 393.08 571.27 382.75 579.75 C 372.43 588.23 365.88 598.69 354.23 606.23 C 342.58 613.77 331.01 619.19 317.22 624.22 C 303.43 629.25 284.76 631.00 269.00 631.00 Z"/>
</g>
<g fill="None" fill-opacity="0.0" stroke="#ADE350" stroke-opacity="1.00" stroke-width="0.3"><path d="
M 635.00 712.00 
C 635.42 716.34 636.86 721.62 635.00 726.00
C 635.00 726.50 634.97 727.50 635.00 728.00
C 670.22 761.05 703.25 798.08 739.00 830.00
C 769.72 797.12 804.41 766.42 834.00 733.00
C 817.80 715.78 798.22 700.29 782.75 682.25 C 767.29 664.20 745.56 650.43 732.00 631.00
C 731.51 630.95 731.00 631.00 731.00 631.00
C 724.02 631.00 716.97 631.28 710.00 631.00
C 708.36 630.93 705.86 631.69 705.00 630.00
C 704.80 629.60 705.00 629.00 705.00 629.00
C 682.33 628.10 659.61 616.79 641.75 604.25 C 623.88 591.72 613.43 573.72 595.00 563.00
C 590.80 560.56 586.75 557.68 583.00 555.00
C 570.84 547.82 557.73 541.86 544.00 539.00
C 549.36 571.76 569.80 597.81 593.75 621.25 C 617.71 644.69 635.00 678.36 635.00 712.00 Z"/>
</g>
<g fill="None" fill-opacity="0.0" stroke="#5F8841" stroke-opacity="1.00" stroke-width="0.3"><path d="
M 595.00 563.00 
C 591.09 560.15 587.25 557.39 583.00 555.00
C 586.75 557.68 590.80 560.56 595.00 563.00 Z"/>
</g>
<g fill="None" fill-opacity="0.0" stroke="#889191" stroke-opacity="1.00" stroke-width="0.3"><path d="
M 186.00 598.00 
C 182.46 594.46 178.59 590.59 175.00 587.00
C 178.33 590.89 182.06 594.63 186.00 598.00 Z"/>
</g>
<g fill="None" fill-opacity="0.0" stroke="#57803F" stroke-opacity="1.00" stroke-width="0.3"><path d="
M 416.00 609.00 
C 416.16 608.77 417.00 609.00 417.00 609.00
C 418.62 607.11 420.42 605.01 422.00 603.00
C 420.18 604.97 417.83 606.86 416.00 609.00 Z"/>
</g>
<g fill="None" fill-opacity="0.0" stroke="#2C503E" stroke-opacity="1.00" stroke-width="0.3"><path d="
M 408.00 618.00 
C 411.20 615.26 414.22 612.25 417.00 609.00
C 417.00 609.00 416.16 608.77 416.00 609.00
C 413.51 611.91 410.75 615.25 408.00 618.00 Z"/>
</g>
<g fill="None" fill-opacity="0.0" stroke="#828C8E" stroke-opacity="1.00" stroke-width="0.3"><path d="
M 788.00 615.00 
C 791.57 613.37 793.90 611.22 797.00 609.00
C 793.88 610.76 790.96 613.31 788.00 615.00 Z"/>
</g>
<g fill="None" fill-opacity="0.0" stroke="#8B9296" stroke-opacity="1.00" stroke-width="0.3"><path d="
M 225.00 622.00 
C 220.64 620.22 215.49 617.15 211.00 615.00
C 215.07 617.63 220.02 620.55 225.00 622.00 Z"/>
</g>
<g fill="None" fill-opacity="0.0" stroke="#899294" stroke-opacity="1.00" stroke-width="0.3"><path d="
M 241.00 627.00 
C 237.64 625.94 233.76 623.96 230.00 623.00
C 233.36 624.24 236.94 626.11 241.00 627.00 Z"/>
</g>
<g fill="None" fill-opacity="0.0" stroke="#969D9E" stroke-opacity="1.00" stroke-width="0.3"><path d="
M 262.00 631.00 
C 257.60 630.40 251.87 628.78 247.00 628.00
C 251.68 629.28 256.59 630.73 262.00 631.00 Z"/>
</g>
<g fill="None" fill-opacity="0.0" stroke="#344A37" stroke-opacity="1.00" stroke-width="0.3"><path d="
M 705.00 630.00 
C 706.49 630.51 708.51 629.49 710.00 630.00
C 709.14 628.31 706.64 629.07 705.00 629.00
C 705.00 629.00 704.80 629.60 705.00 630.00 Z"/>
</g>
<g fill="None" fill-opacity="0.0" stroke="#75A040" stroke-opacity="1.00" stroke-width="0.3"><path d="
M 710.00 631.00 
C 710.00 631.00 710.20 630.40 710.00 630.00
C 708.51 629.49 706.49 630.51 705.00 630.00
C 705.86 631.69 708.36 630.93 710.00 631.00 Z"/>
</g>
<g fill="None" fill-opacity="0.0" stroke="#798283" stroke-opacity="1.00" stroke-width="0.3"><path d="
M 731.00 631.00 
C 731.00 631.00 731.51 630.95 732.00 631.00
C 734.36 631.26 736.30 630.33 738.00 630.00
C 735.77 630.20 732.64 630.84 731.00 631.00 Z"/>
</g>
<g fill="None" fill-opacity="0.0" stroke="#69904F" stroke-opacity="1.00" stroke-width="0.3"><path d="
M 635.00 726.00 
C 636.86 721.62 635.42 716.34 635.00 712.00
C 635.00 716.67 635.00 721.33 635.00 726.00 Z"/>
</g>
<g fill="None" fill-opacity="0.0" stroke="#435A72" stroke-opacity="1.00" stroke-width="0.3"><path d="
M 365.00 738.00 
C 364.85 735.42 365.44 732.96 364.00 731.00
C 364.15 733.42 364.74 736.17 365.00 738.00 Z"/>
</g>
<g fill="None" fill-opacity="0.0" stroke="#676765" stroke-opacity="0.48" stroke-width="0.3"><path d="
M 969.00 799.00 
C 969.19 797.89 970.23 796.85 970.00 795.00
C 970.00 795.00 970.00 794.50 970.00 794.00
C 970.00 794.00 969.05 793.85 969.00 794.00
C 969.00 795.67 969.00 797.33 969.00 799.00 Z"/>
</g>
<g fill="None" fill-opacity="0.0" stroke="#8A9394" stroke-opacity="1.00" stroke-width="0.3"><path d="
M 410.00 822.00 
C 405.79 818.11 400.93 813.26 397.00 809.00
C 400.65 813.63 405.32 818.30 410.00 822.00 Z"/>
</g>
<g fill="None" fill-opacity="0.0" stroke="#AFE554" stroke-opacity="1.00" stroke-width="0.3"><path d="
M 560.00 841.00 
C 557.51 842.62 554.99 844.02 552.00 845.00
C 531.55 851.73 512.46 855.00 490.00 855.00
C 487.05 855.00 484.27 854.44 482.00 854.00
C 464.92 852.65 447.01 845.42 432.00 838.00
C 435.27 846.45 429.83 859.22 432.00 868.00 C 434.17 876.78 429.53 888.59 432.01 896.99 C 434.49 905.39 448.63 899.91 457.00 901.00 C 465.37 902.09 478.02 900.60 487.00 901.00 C 495.98 901.40 506.94 901.07 516.00 901.00 C 525.06 900.93 536.28 901.58 545.00 901.00 C 553.72 900.42 568.26 904.94 569.00 895.00 C 569.74 885.06 567.70 875.54 569.00 866.00 C 570.30 856.46 566.29 846.05 569.00 837.00
C 566.44 838.57 562.85 839.14 560.00 841.00 Z"/>
</g>
<g fill="None" fill-opacity="0.0" stroke="#64843A" stroke-opacity="1.00" stroke-width="0.3"><path d="
M 552.00 845.00 
C 554.99 844.02 557.51 842.62 560.00 841.00
C 557.46 842.24 554.28 843.95 552.00 845.00 Z"/>
</g>
<g fill="None" fill-opacity="0.0" stroke="#5C823A" stroke-opacity="1.00" stroke-width="0.3"><path d="
M 490.00 855.00 
C 488.07 854.81 484.60 854.21 482.00 854.00
C 484.27 854.44 487.05 855.00 490.00 855.00 Z"/>
</g>
<g fill="None" fill-opacity="0.0" stroke="#7A7A7A" stroke-opacity="0.43" stroke-width="0.3"><path d="
M 201.00 970.00 
C 199.81 969.83 197.85 969.07 196.00 969.00
C 197.19 969.17 199.16 969.93 201.00 970.00 Z"/>
</g>
<g fill="None" fill-opacity="0.0" stroke="#797979" stroke-opacity="0.41" stroke-width="0.3"><path d="
M 799.00 970.00 
C 800.81 969.93 802.80 969.17 804.00 969.00
C 802.19 969.07 800.21 969.83 799.00 970.00 Z"/>
</g>
<g fill="#000000" fill-opacity="0.00" stroke="None">
<path d="
M 0.00 1000.00 
L 1000.00 1000.00
L 1000.00 0.00
L 0.00 0.00
L 0.00 1000.00
M 855.00 41.00 
C 856.46 41.49 857.87 42.49 859.00 43.00
C 861.63 44.18 864.57 45.85 867.00 47.00
C 867.83 47.39 869.07 47.58 870.00 48.00
C 876.05 50.73 882.06 53.70 887.00 58.00
C 890.18 59.83 893.10 61.69 896.00 64.00
C 899.96 67.16 904.15 69.71 908.00 73.00
C 909.82 74.56 911.38 76.38 913.00 78.00
C 916.32 81.32 919.97 84.45 923.00 88.00
C 950.13 119.74 969.00 158.52 969.00 201.00
C 969.18 202.82 970.16 205.47 970.00 208.00
C 973.80 239.41 970.00 272.64 971.00 305.00 C 972.00 337.36 970.69 370.50 971.00 403.00 C 971.31 435.50 971.17 468.47 971.00 501.00 C 970.83 533.53 971.75 566.52 971.00 599.00 C 970.25 631.48 972.85 664.71 971.00 697.00 C 969.15 729.29 975.57 763.90 970.00 795.00
C 970.23 796.85 969.19 797.89 969.00 799.00
C 969.03 886.03 890.19 965.56 804.00 969.00
C 802.80 969.17 800.81 969.93 799.00 970.00
C 732.76 972.64 666.32 969.29 600.00 970.00 C 533.68 970.71 467.38 970.75 401.00 970.00 C 334.62 969.25 267.37 972.69 201.00 970.00
C 199.16 969.93 197.19 969.17 196.00 969.00
C 109.81 965.52 31.00 886.08 31.00 799.00
C 26.28 750.26 31.21 699.74 30.00 650.00 C 28.79 600.26 30.00 548.86 30.00 499.00 C 30.00 449.14 28.76 398.78 30.00 349.00 C 31.24 299.22 26.28 247.78 31.00 199.00
C 31.00 156.71 50.72 119.97 77.25 88.25 C 103.78 56.52 139.97 41.85 178.00 32.00
C 179.49 31.61 180.30 31.09 182.00 31.00
C 182.96 30.95 184.05 31.17 185.00 31.00
C 186.31 30.77 188.11 30.08 190.00 30.00
C 192.99 29.88 196.01 30.00 199.00 30.00
C 247.66 25.29 298.36 30.17 348.00 29.00 C 397.64 27.83 448.22 28.87 498.00 29.00 C 547.78 29.13 598.23 27.47 648.00 29.00 C 697.77 30.53 748.40 25.06 798.00 29.00
C 818.05 30.59 836.32 34.75 855.00 41.00 Z"/>
</g>
<g fill="#969695" fill-opacity="0.27" stroke="None">
<path d="
M 199.00 30.00 
C 398.45 30.00 599.39 32.48 798.00 29.00
C 748.40 25.06 697.77 30.53 648.00 29.00 C 598.23 27.47 547.78 29.13 498.00 29.00 C 448.22 28.87 397.64 27.83 348.00 29.00 C 298.36 30.17 247.66 25.29 199.00 30.00 Z"/>
</g>
<g fill="#FEFEFE" fill-opacity="1.00" stroke="None">
<path d="
M 199.00 30.00 
C 196.01 30.00 192.99 29.88 190.00 30.00
C 189.96 30.00 190.00 31.00 190.00 31.00
C 188.35 33.12 186.51 31.32 185.00 31.00
C 184.05 31.17 182.96 30.95 182.00 31.00
C 180.20 31.82 180.32 31.86 178.00 32.00
C 139.97 41.85 103.78 56.52 77.25 88.25 C 50.72 119.97 31.00 156.71 31.00 199.00
C 31.00 399.00 31.00 599.00 31.00 799.00
C 31.00 886.08 109.81 965.52 196.00 969.00
C 197.85 969.07 199.81 969.83 201.00 970.00
C 267.37 972.69 334.62 969.25 401.00 970.00 C 467.38 970.75 533.68 970.71 600.00 970.00 C 666.32 969.29 732.76 972.64 799.00 970.00
C 800.21 969.83 802.19 969.07 804.00 969.00
C 890.19 965.56 969.03 886.03 969.00 799.00
C 969.00 797.33 969.00 795.67 969.00 794.00
C 969.02 599.34 968.99 404.67 969.00 210.00
C 969.00 207.00 969.00 204.00 969.00 201.00
C 969.00 158.52 950.13 119.74 923.00 88.00
C 919.75 84.75 916.21 81.21 913.00 78.00
C 911.41 76.41 909.55 74.55 908.00 73.00
C 904.15 69.71 899.96 67.16 896.00 64.00
C 893.49 62.75 890.03 60.64 887.00 58.00
C 882.06 53.70 876.05 50.73 870.00 48.00
C 869.12 47.72 867.09 47.07 867.00 47.00
C 864.57 45.85 861.63 44.18 859.00 43.00
C 857.51 42.60 856.50 41.78 855.00 41.00
C 836.32 34.75 818.05 30.59 798.00 29.00
C 599.39 32.48 398.45 30.00 199.00 30.00
M 569.00 154.00 
C 575.72 157.99 582.69 164.02 589.00 169.00
C 594.02 172.96 599.08 178.03 603.00 183.00
C 621.02 205.82 635.00 234.29 635.00 264.00
C 635.05 264.23 635.95 264.65 636.00 265.00
C 642.55 264.13 646.87 252.47 652.75 248.75 C 658.63 245.03 664.01 236.52 669.75 231.75 C 675.50 226.98 681.09 219.97 686.75 214.75 C 692.41 209.53 697.64 203.71 703.25 198.25 C 708.86 192.79 714.67 186.85 720.25 181.25 C 725.83 175.64 731.96 169.98 737.00 164.00
C 770.42 193.59 801.12 228.28 834.00 259.00
C 801.17 292.67 767.62 326.21 734.00 359.00
C 763.84 361.89 791.90 375.27 815.00 395.00
C 818.87 398.31 822.98 401.94 826.00 406.00
C 831.31 413.14 837.90 420.48 842.00 428.00
C 850.98 431.48 863.37 426.18 873.00 428.00 C 882.63 429.82 894.19 426.64 904.00 428.00
C 903.73 438.90 904.36 450.13 904.00 461.00 C 903.64 471.87 904.67 484.36 904.00 495.00 C 903.33 505.64 905.47 517.99 904.00 528.00 C 902.53 538.01 907.14 553.30 904.00 562.00 C 900.86 570.70 882.35 562.99 874.00 565.00 C 865.65 567.01 849.55 564.32 841.00 564.00
C 830.42 581.10 814.77 598.99 797.00 609.00
C 793.90 611.22 791.57 613.37 788.00 615.00
C 771.71 622.45 756.12 628.35 738.00 630.00
C 736.30 630.33 734.36 631.26 732.00 631.00
C 745.56 650.43 767.29 664.20 782.75 682.25 C 798.22 700.29 817.80 715.78 834.00 733.00
C 804.41 766.42 769.72 797.12 739.00 830.00
C 703.25 798.08 670.22 761.05 635.00 728.00
C 636.53 749.79 624.29 775.68 613.23 793.23 C 602.17 810.78 586.22 826.45 569.00 837.00
C 566.29 846.05 570.30 856.46 569.00 866.00 C 567.70 875.54 569.74 885.06 569.00 895.00 C 568.26 904.94 553.72 900.42 545.00 901.00 C 536.28 901.58 525.06 900.93 516.00 901.00 C 506.94 901.07 495.98 901.40 487.00 901.00 C 478.02 900.60 465.37 902.09 457.00 901.00 C 448.63 899.91 434.49 905.39 432.01 896.99 C 429.53 888.59 434.17 876.78 432.00 868.00 C 429.83 859.22 435.27 846.45 432.00 838.00
C 424.54 834.31 416.75 827.32 410.00 822.00
C 405.32 818.30 400.65 813.63 397.00 809.00
C 380.79 788.47 366.59 764.59 365.00 738.00
C 364.74 736.17 364.15 733.42 364.00 731.00
C 363.78 730.70 363.05 730.23 363.00 730.00
C 354.96 735.70 349.48 745.27 341.75 751.75 C 334.02 758.24 327.64 766.12 320.25 773.25 C 312.86 780.37 305.94 787.02 298.75 794.75 C 291.56 802.49 284.26 807.52 277.25 816.25 C 270.24 824.97 262.04 831.67 254.75 821.25 C 247.46 810.83 240.49 808.39 233.25 799.75 C 226.00 791.11 219.00 786.10 211.75 778.25 C 204.50 770.40 197.56 764.26 190.25 756.75 C 182.94 749.24 175.67 741.90 168.00 735.00
C 199.36 699.15 237.66 666.83 269.00 631.00
C 266.68 631.00 264.32 631.11 262.00 631.00
C 256.59 630.73 251.68 629.28 247.00 628.00
C 244.84 627.65 243.10 627.46 241.00 627.00
C 236.94 626.11 233.36 624.24 230.00 623.00
C 228.32 622.57 226.70 622.50 225.00 622.00
C 220.02 620.55 215.07 617.63 211.00 615.00
C 202.05 610.72 193.58 604.48 186.00 598.00
C 182.06 594.63 178.33 590.89 175.00 587.00
C 169.03 580.01 162.49 572.57 158.00 565.00
C 148.98 561.83 137.61 566.60 128.00 565.00 C 118.39 563.40 106.79 566.20 97.00 565.00
C 97.00 519.33 97.00 473.67 97.00 428.00
C 117.00 428.00 137.00 428.00 157.00 428.00
C 179.28 387.58 222.07 363.25 266.00 359.00
C 259.24 356.50 255.26 345.46 248.75 341.25 C 242.25 337.04 237.54 328.90 231.25 323.75 C 224.95 318.60 219.59 311.27 213.25 305.75 C 206.91 300.24 202.43 293.88 195.75 288.25 C 189.07 282.61 185.84 276.38 178.25 270.75 C 170.66 265.13 166.00 257.67 174.75 251.75 C 183.50 245.83 185.09 240.15 192.25 234.25 C 199.41 228.35 203.30 222.68 209.75 216.75 C 216.21 210.83 221.59 204.70 227.75 198.75 C 233.91 192.81 239.26 187.24 245.25 181.25 C 251.24 175.26 257.57 169.35 263.00 163.00
C 296.83 195.33 329.21 229.71 363.00 262.00
C 366.92 217.51 392.72 173.97 433.00 152.00
C 435.05 145.23 429.48 132.88 432.00 125.00 C 434.52 117.12 428.75 103.32 432.00 96.00 C 435.25 88.68 450.25 94.28 458.00 93.00 C 465.75 91.72 477.50 93.31 486.00 93.00 C 494.50 92.69 506.47 92.64 515.00 93.00 C 523.53 93.36 536.19 91.74 544.00 93.00 C 551.81 94.26 565.95 88.46 568.97 96.03 C 571.99 103.60 566.80 116.66 569.00 125.00 C 571.20 133.34 566.11 145.76 569.00 154.00 Z"/>
</g>
<g fill="#686865" fill-opacity="0.22" stroke="None">
<path d="
M 185.00 31.00 
C 186.53 30.61 188.51 31.51 190.00 31.00
C 190.00 31.00 189.96 30.00 190.00 30.00
C 188.11 30.08 186.31 30.77 185.00 31.00 Z"/>
</g>
<g fill="#9E9E9B" fill-opacity="0.51" stroke="None">
<path d="
M 178.00 32.00 
C 180.32 31.86 180.20 31.82 182.00 31.00
C 180.30 31.09 179.49 31.61 178.00 32.00 Z"/>
</g>
<g fill="#B6B6B5" fill-opacity="0.72" stroke="None">
<path d="
M 190.00 31.00 
C 188.51 31.51 186.53 30.61 185.00 31.00
C 186.51 31.32 188.35 33.12 190.00 31.00 Z"/>
</g>
<g fill="#A2A1A2" fill-opacity="0.48" stroke="None">
<path d="
M 859.00 43.00 
C 857.87 42.49 856.46 41.49 855.00 41.00
C 856.50 41.78 857.51 42.60 859.00 43.00 Z"/>
</g>
<g fill="#B2B2B2" fill-opacity="0.59" stroke="None">
<path d="
M 870.00 48.00 
C 869.07 47.58 867.83 47.39 867.00 47.00
C 867.09 47.07 869.12 47.72 870.00 48.00 Z"/>
</g>
<g fill="#AEAEAE" fill-opacity="0.56" stroke="None">
<path d="
M 896.00 64.00 
C 893.10 61.69 890.18 59.83 887.00 58.00
C 890.03 60.64 893.49 62.75 896.00 64.00 Z"/>
</g>
<g fill="#454545" fill-opacity="0.16" stroke="None">
<path d="
M 913.00 78.00 
C 911.38 76.38 909.82 74.56 908.00 73.00
C 909.55 74.55 911.41 76.41 913.00 78.00 Z"/>
</g>
<g fill="#838383" fill-opacity="0.32" stroke="None">
<path d="
M 923.00 88.00 
C 919.97 84.45 916.32 81.32 913.00 78.00
C 916.21 81.21 919.75 84.75 923.00 88.00 Z"/>
</g>
<g fill="#AEE352" fill-opacity="1.00" stroke="None">
<path d="
M 433.00 152.00 
C 450.42 142.50 471.82 136.40 492.00 136.00
C 496.84 135.42 502.21 135.32 507.00 136.00
C 528.08 136.80 550.96 143.29 569.00 154.00
C 566.11 145.76 571.20 133.34 569.00 125.00 C 566.80 116.66 571.99 103.60 568.97 96.03 C 565.95 88.46 551.81 94.26 544.00 93.00 C 536.19 91.74 523.53 93.36 515.00 93.00 C 506.47 92.64 494.50 92.69 486.00 93.00 C 477.50 93.31 465.75 91.72 458.00 93.00 C 450.25 94.28 435.25 88.68 432.00 96.00 C 428.75 103.32 434.52 117.12 432.00 125.00 C 429.48 132.88 435.05 145.23 433.00 152.00 Z"/>
</g>
<g fill="#4D7F45" fill-opacity="1.00" stroke="None">
<path d="
M 492.00 136.00 
C 496.97 135.90 502.03 135.81 507.00 136.00
C 502.21 135.32 496.84 135.42 492.00 136.00 Z"/>
</g>
<g fill="#17343C" fill-opacity="1.00" stroke="None">
<path d="
M 433.00 152.00 
C 392.72 173.97 366.92 217.51 363.00 262.00
C 359.76 298.78 374.70 339.00 400.25 364.75 C 425.80 390.50 448.66 415.60 455.00 451.00
C 420.20 442.93 394.90 423.20 369.25 396.75 C 343.60 370.30 302.86 357.53 266.00 359.00
C 222.07 363.25 179.28 387.58 157.00 428.00
C 133.90 469.89 133.27 523.36 158.00 565.00
C 162.49 572.57 169.03 580.01 175.00 587.00
C 178.59 590.59 182.46 594.46 186.00 598.00
C 193.58 604.48 202.05 610.72 211.00 615.00
C 215.49 617.15 220.64 620.22 225.00 622.00
C 226.70 622.50 228.32 622.57 230.00 623.00
C 233.76 623.96 237.64 625.94 241.00 627.00
C 243.10 627.46 244.84 627.65 247.00 628.00
C 251.87 628.78 257.60 630.40 262.00 631.00
C 264.32 631.11 266.68 631.00 269.00 631.00
C 284.76 631.00 303.43 629.25 317.22 624.22 C 331.01 619.19 342.58 613.77 354.23 606.23 C 365.88 598.69 372.43 588.23 382.75 579.75 C 393.08 571.27 401.74 560.63 413.74 555.74 C 425.75 550.86 439.80 539.37 453.00 539.00
C 455.93 538.92 455.57 538.88 455.00 542.00
C 455.12 549.09 447.81 557.15 446.23 564.23 C 444.65 571.31 438.74 577.87 435.23 584.23 C 431.72 590.59 426.58 597.19 422.00 603.00
C 420.42 605.01 418.62 607.11 417.00 609.00
C 414.22 612.25 411.20 615.26 408.00 618.00
C 393.23 630.62 382.11 644.84 374.69 662.69 C 367.28 680.55 358.35 709.09 363.00 730.00
C 363.05 730.23 363.78 730.70 364.00 731.00
C 365.44 732.96 364.85 735.42 365.00 738.00
C 366.59 764.59 380.79 788.47 397.00 809.00
C 400.93 813.26 405.79 818.11 410.00 822.00
C 416.75 827.32 424.54 834.31 432.00 838.00
C 447.01 845.42 464.92 852.65 482.00 854.00
C 484.60 854.21 488.07 854.81 490.00 855.00
C 512.46 855.00 531.55 851.73 552.00 845.00
C 554.28 843.95 557.46 842.24 560.00 841.00
C 562.85 839.14 566.44 838.57 569.00 837.00
C 586.22 826.45 602.17 810.78 613.23 793.23 C 624.29 775.68 636.53 749.79 635.00 728.00
C 634.97 727.50 635.00 726.50 635.00 726.00
C 635.00 721.33 635.00 716.67 635.00 712.00
C 635.00 678.36 617.71 644.69 593.75 621.25 C 569.80 597.81 549.36 571.76 544.00 539.00
C 557.73 541.86 570.84 547.82 583.00 555.00
C 587.25 557.39 591.09 560.15 595.00 563.00
C 613.43 573.72 623.88 591.72 641.75 604.25 C 659.61 616.79 682.33 628.10 705.00 629.00
C 706.64 629.07 709.14 628.31 710.00 630.00
C 710.20 630.40 710.00 631.00 710.00 631.00
C 716.97 631.28 724.02 631.00 731.00 631.00
C 732.64 630.84 735.77 630.20 738.00 630.00
C 756.12 628.35 771.71 622.45 788.00 615.00
C 790.96 613.31 793.88 610.76 797.00 609.00
C 814.77 598.99 830.42 581.10 841.00 564.00
C 865.78 523.97 864.10 468.52 842.00 428.00
C 837.90 420.48 831.31 413.14 826.00 406.00
C 822.80 402.33 818.43 398.43 815.00 395.00
C 791.90 375.27 763.84 361.89 734.00 359.00
C 697.02 355.42 655.60 369.99 629.75 395.75 C 603.91 421.51 578.11 443.30 543.00 451.00
C 551.55 419.40 568.18 392.39 593.25 369.25 C 618.32 346.11 633.35 312.59 635.00 279.00
C 635.00 274.00 635.00 269.00 635.00 264.00
C 635.00 234.29 621.02 205.82 603.00 183.00
C 598.75 178.40 593.55 173.21 589.00 169.00
C 582.69 164.02 575.72 157.99 569.00 154.00
C 550.96 143.29 528.08 136.80 507.00 136.00
C 502.03 135.81 496.97 135.90 492.00 136.00
C 471.82 136.40 450.42 142.50 433.00 152.00 Z"/>
</g>
<g fill="#ADE350" fill-opacity="1.00" stroke="None">
<path d="
M 266.00 359.00 
C 302.86 357.53 343.60 370.30 369.25 396.75 C 394.90 423.20 420.20 442.93 455.00 451.00
C 448.66 415.60 425.80 390.50 400.25 364.75 C 374.70 339.00 359.76 298.78 363.00 262.00
C 329.21 229.71 296.83 195.33 263.00 163.00
C 257.57 169.35 251.24 175.26 245.25 181.25 C 239.26 187.24 233.91 192.81 227.75 198.75 C 221.59 204.70 216.21 210.83 209.75 216.75 C 203.30 222.68 199.41 228.35 192.25 234.25 C 185.09 240.15 183.50 245.83 174.75 251.75 C 166.00 257.67 170.66 265.13 178.25 270.75 C 185.84 276.38 189.07 282.61 195.75 288.25 C 202.43 293.88 206.91 300.24 213.25 305.75 C 219.59 311.27 224.95 318.60 231.25 323.75 C 237.54 328.90 242.25 337.04 248.75 341.25 C 255.26 345.46 259.24 356.50 266.00 359.00 Z"/>
</g>
<g fill="#ADE34E" fill-opacity="1.00" stroke="None">
<path d="
M 636.00 265.00 
C 636.68 269.69 635.38 275.09 635.00 279.00
C 633.35 312.59 618.32 346.11 593.25 369.25 C 568.18 392.39 551.55 419.40 543.00 451.00
C 578.11 443.30 603.91 421.51 629.75 395.75 C 655.60 369.99 697.02 355.42 734.00 359.00
C 767.62 326.21 801.17 292.67 834.00 259.00
C 801.12 228.28 770.42 193.59 737.00 164.00
C 731.96 169.98 725.83 175.64 720.25 181.25 C 714.67 186.85 708.86 192.79 703.25 198.25 C 697.64 203.71 692.41 209.53 686.75 214.75 C 681.09 219.97 675.50 226.98 669.75 231.75 C 664.01 236.52 658.63 245.03 652.75 248.75 C 646.87 252.47 642.55 264.13 636.00 265.00 Z"/>
</g>
<g fill="#899697" fill-opacity="1.00" stroke="None">
<path d="
M 603.00 183.00 
C 599.08 178.03 594.02 172.96 589.00 169.00
C 593.55 173.21 598.75 178.40 603.00 183.00 Z"/>
</g>
<g fill="#6A6A69" fill-opacity="0.61" stroke="None">
<path d="
M 31.00 799.00 
C 31.00 599.00 31.00 399.00 31.00 199.00
C 26.28 247.78 31.24 299.22 30.00 349.00 C 28.76 398.78 30.00 449.14 30.00 499.00 C 30.00 548.86 28.79 600.26 30.00 650.00 C 31.21 699.74 26.28 750.26 31.00 799.00 Z"/>
</g>
<g fill="#6F7170" fill-opacity="0.45" stroke="None">
<path d="
M 969.00 210.00 
C 969.00 209.96 970.00 210.00 970.00 210.00
C 970.00 209.50 969.97 208.50 970.00 208.00
C 970.16 205.47 969.18 202.82 969.00 201.00
C 969.00 204.00 969.00 207.00 969.00 210.00 Z"/>
</g>
<g fill="#000000" fill-opacity="0.09" stroke="None">
<path d="
M 970.00 210.00 
C 969.99 404.67 969.77 599.34 970.00 794.00
C 970.00 794.50 970.00 795.00 970.00 795.00
C 975.57 763.90 969.15 729.29 971.00 697.00 C 972.85 664.71 970.25 631.48 971.00 599.00 C 971.75 566.52 970.83 533.53 971.00 501.00 C 971.17 468.47 971.31 435.50 971.00 403.00 C 970.69 370.50 972.00 337.36 971.00 305.00 C 970.00 272.64 973.80 239.41 970.00 208.00
C 969.97 208.50 970.00 209.50 970.00 210.00 Z"/>
</g>
<g fill="#919292" fill-opacity="0.61" stroke="None">
<path d="
M 969.00 794.00 
C 969.05 793.85 970.00 794.00 970.00 794.00
C 969.77 599.34 969.99 404.67 970.00 210.00
C 970.00 210.00 969.00 209.96 969.00 210.00
C 968.99 404.67 969.02 599.34 969.00 794.00 Z"/>
</g>
<g fill="#789F5F" fill-opacity="1.00" stroke="None">
<path d="
M 635.00 279.00 
C 635.38 275.09 636.68 269.69 636.00 265.00
C 635.95 264.65 635.05 264.23 635.00 264.00
C 635.00 269.00 635.00 274.00 635.00 279.00 Z"/>
</g>
<g fill="#829194" fill-opacity="1.00" stroke="None">
<path d="
M 826.00 406.00 
C 822.98 401.94 818.87 398.31 815.00 395.00
C 818.43 398.43 822.80 402.33 826.00 406.00 Z"/>
</g>
<g fill="#AFE552" fill-opacity="1.00" stroke="None">
<path d="
M 158.00 565.00 
C 133.27 523.36 133.90 469.89 157.00 428.00
C 137.00 428.00 117.00 428.00 97.00 428.00
C 97.00 473.67 97.00 519.33 97.00 565.00
C 106.79 566.20 118.39 563.40 128.00 565.00 C 137.61 566.60 148.98 561.83 158.00 565.00 Z"/>
</g>
<g fill="#AEE450" fill-opacity="1.00" stroke="None">
<path d="
M 841.00 564.00 
C 849.55 564.32 865.65 567.01 874.00 565.00 C 882.35 562.99 900.86 570.70 904.00 562.00 C 907.14 553.30 902.53 538.01 904.00 528.00 C 905.47 517.99 903.33 505.64 904.00 495.00 C 904.67 484.36 903.64 471.87 904.00 461.00 C 904.36 450.13 903.73 438.90 904.00 428.00
C 894.19 426.64 882.63 429.82 873.00 428.00 C 863.37 426.18 850.98 431.48 842.00 428.00
C 864.10 468.52 865.78 523.97 841.00 564.00 Z"/>
</g>
<g fill="#2F4831" fill-opacity="1.00" stroke="None">
<path d="
M 453.00 539.00 
C 454.96 539.58 454.96 539.70 455.00 542.00
C 455.57 538.88 455.93 538.92 453.00 539.00 Z"/>
</g>
<g fill="#ADE34F" fill-opacity="1.00" stroke="None">
<path d="
M 269.00 631.00 
C 237.66 666.83 199.36 699.15 168.00 735.00
C 175.67 741.90 182.94 749.24 190.25 756.75 C 197.56 764.26 204.50 770.40 211.75 778.25 C 219.00 786.10 226.00 791.11 233.25 799.75 C 240.49 808.39 247.46 810.83 254.75 821.25 C 262.04 831.67 270.24 824.97 277.25 816.25 C 284.26 807.52 291.56 802.49 298.75 794.75 C 305.94 787.02 312.86 780.37 320.25 773.25 C 327.64 766.12 334.02 758.24 341.75 751.75 C 349.48 745.27 354.96 735.70 363.00 730.00
C 358.35 709.09 367.28 680.55 374.69 662.69 C 382.11 644.84 393.23 630.62 408.00 618.00
C 410.75 615.25 413.51 611.91 416.00 609.00
C 417.83 606.86 420.18 604.97 422.00 603.00
C 426.58 597.19 431.72 590.59 435.23 584.23 C 438.74 577.87 444.65 571.31 446.23 564.23 C 447.81 557.15 455.12 549.09 455.00 542.00
C 454.96 539.70 454.96 539.58 453.00 539.00
C 439.80 539.37 425.75 550.86 413.74 555.74 C 401.74 560.63 393.08 571.27 382.75 579.75 C 372.43 588.23 365.88 598.69 354.23 606.23 C 342.58 613.77 331.01 619.19 317.22 624.22 C 303.43 629.25 284.76 631.00 269.00 631.00 Z"/>
</g>
<g fill="#ADE350" fill-opacity="1.00" stroke="None">
<path d="
M 635.00 712.00 
C 635.42 716.34 636.86 721.62 635.00 726.00
C 635.00 726.50 634.97 727.50 635.00 728.00
C 670.22 761.05 703.25 798.08 739.00 830.00
C 769.72 797.12 804.41 766.42 834.00 733.00
C 817.80 715.78 798.22 700.29 782.75 682.25 C 767.29 664.20 745.56 650.43 732.00 631.00
C 731.51 630.95 731.00 631.00 731.00 631.00
C 724.02 631.00 716.97 631.28 710.00 631.00
C 708.36 630.93 705.86 631.69 705.00 630.00
C 704.80 629.60 705.00 629.00 705.00 629.00
C 682.33 628.10 659.61 616.79 641.75 604.25 C 623.88 591.72 613.43 573.72 595.00 563.00
C 590.80 560.56 586.75 557.68 583.00 555.00
C 570.84 547.82 557.73 541.86 544.00 539.00
C 549.36 571.76 569.80 597.81 593.75 621.25 C 617.71 644.69 635.00 678.36 635.00 712.00 Z"/>
</g>
<g fill="#5F8841" fill-opacity="1.00" stroke="None">
<path d="
M 595.00 563.00 
C 591.09 560.15 587.25 557.39 583.00 555.00
C 586.75 557.68 590.80 560.56 595.00 563.00 Z"/>
</g>
<g fill="#889191" fill-opacity="1.00" stroke="None">
<path d="
M 186.00 598.00 
C 182.46 594.46 178.59 590.59 175.00 587.00
C 178.33 590.89 182.06 594.63 186.00 598.00 Z"/>
</g>
<g fill="#57803F" fill-opacity="1.00" stroke="None">
<path d="
M 416.00 609.00 
C 416.16 608.77 417.00 609.00 417.00 609.00
C 418.62 607.11 420.42 605.01 422.00 603.00
C 420.18 604.97 417.83 606.86 416.00 609.00 Z"/>
</g>
<g fill="#2C503E" fill-opacity="1.00" stroke="None">
<path d="
M 408.00 618.00 
C 411.20 615.26 414.22 612.25 417.00 609.00
C 417.00 609.00 416.16 608.77 416.00 609.00
C 413.51 611.91 410.75 615.25 408.00 618.00 Z"/>
</g>
<g fill="#828C8E" fill-opacity="1.00" stroke="None">
<path d="
M 788.00 615.00 
C 791.57 613.37 793.90 611.22 797.00 609.00
C 793.88 610.76 790.96 613.31 788.00 615.00 Z"/>
</g>
<g fill="#8B9296" fill-opacity="1.00" stroke="None">
<path d="
M 225.00 622.00 
C 220.64 620.22 215.49 617.15 211.00 615.00
C 215.07 617.63 220.02 620.55 225.00 622.00 Z"/>
</g>
<g fill="#899294" fill-opacity="1.00" stroke="None">
<path d="
M 241.00 627.00 
C 237.64 625.94 233.76 623.96 230.00 623.00
C 233.36 624.24 236.94 626.11 241.00 627.00 Z"/>
</g>
<g fill="#969D9E" fill-opacity="1.00" stroke="None">
<path d="
M 262.00 631.00 
C 257.60 630.40 251.87 628.78 247.00 628.00
C 251.68 629.28 256.59 630.73 262.00 631.00 Z"/>
</g>
<g fill="#344A37" fill-opacity="1.00" stroke="None">
<path d="
M 705.00 630.00 
C 706.49 630.51 708.51 629.49 710.00 630.00
C 709.14 628.31 706.64 629.07 705.00 629.00
C 705.00 629.00 704.80 629.60 705.00 630.00 Z"/>
</g>
<g fill="#75A040" fill-opacity="1.00" stroke="None">
<path d="
M 710.00 631.00 
C 710.00 631.00 710.20 630.40 710.00 630.00
C 708.51 629.49 706.49 630.51 705.00 630.00
C 705.86 631.69 708.36 630.93 710.00 631.00 Z"/>
</g>
<g fill="#798283" fill-opacity="1.00" stroke="None">
<path d="
M 731.00 631.00 
C 731.00 631.00 731.51 630.95 732.00 631.00
C 734.36 631.26 736.30 630.33 738.00 630.00
C 735.77 630.20 732.64 630.84 731.00 631.00 Z"/>
</g>
<g fill="#69904F" fill-opacity="1.00" stroke="None">
<path d="
M 635.00 726.00 
C 636.86 721.62 635.42 716.34 635.00 712.00
C 635.00 716.67 635.00 721.33 635.00 726.00 Z"/>
</g>
<g fill="#435A72" fill-opacity="1.00" stroke="None">
<path d="
M 365.00 738.00 
C 364.85 735.42 365.44 732.96 364.00 731.00
C 364.15 733.42 364.74 736.17 365.00 738.00 Z"/>
</g>
<g fill="#676765" fill-opacity="0.48" stroke="None">
<path d="
M 969.00 799.00 
C 969.19 797.89 970.23 796.85 970.00 795.00
C 970.00 795.00 970.00 794.50 970.00 794.00
C 970.00 794.00 969.05 793.85 969.00 794.00
C 969.00 795.67 969.00 797.33 969.00 799.00 Z"/>
</g>
<g fill="#8A9394" fill-opacity="1.00" stroke="None">
<path d="
M 410.00 822.00 
C 405.79 818.11 400.93 813.26 397.00 809.00
C 400.65 813.63 405.32 818.30 410.00 822.00 Z"/>
</g>
<g fill="#AFE554" fill-opacity="1.00" stroke="None">
<path d="
M 560.00 841.00 
C 557.51 842.62 554.99 844.02 552.00 845.00
C 531.55 851.73 512.46 855.00 490.00 855.00
C 487.05 855.00 484.27 854.44 482.00 854.00
C 464.92 852.65 447.01 845.42 432.00 838.00
C 435.27 846.45 429.83 859.22 432.00 868.00 C 434.17 876.78 429.53 888.59 432.01 896.99 C 434.49 905.39 448.63 899.91 457.00 901.00 C 465.37 902.09 478.02 900.60 487.00 901.00 C 495.98 901.40 506.94 901.07 516.00 901.00 C 525.06 900.93 536.28 901.58 545.00 901.00 C 553.72 900.42 568.26 904.94 569.00 895.00 C 569.74 885.06 567.70 875.54 569.00 866.00 C 570.30 856.46 566.29 846.05 569.00 837.00
C 566.44 838.57 562.85 839.14 560.00 841.00 Z"/>
</g>
<g fill="#64843A" fill-opacity="1.00" stroke="None">
<path d="
M 552.00 845.00 
C 554.99 844.02 557.51 842.62 560.00 841.00
C 557.46 842.24 554.28 843.95 552.00 845.00 Z"/>
</g>
<g fill="#5C823A" fill-opacity="1.00" stroke="None">
<path d="
M 490.00 855.00 
C 488.07 854.81 484.60 854.21 482.00 854.00
C 484.27 854.44 487.05 855.00 490.00 855.00 Z"/>
</g>
<g fill="#7A7A7A" fill-opacity="0.43" stroke="None">
<path d="
M 201.00 970.00 
C 199.81 969.83 197.85 969.07 196.00 969.00
C 197.19 969.17 199.16 969.93 201.00 970.00 Z"/>
</g>
<g fill="#797979" fill-opacity="0.41" stroke="None">
<path d="
M 799.00 970.00 
C 800.81 969.93 802.80 969.17 804.00 969.00
C 802.19 969.07 800.21 969.83 799.00 970.00 Z"/>
</g>
</svg>